<?xml version="1.0" standalone="no"?><svg xmlns="http://www.w3.org/2000/svg" viewBox="0 0 1440 320"><path fill="#CB0071" fill-opacity="1" d="M0,32L40,42.7C80,53,160,75,240,101.3C320,128,400,160,480,197.3C560,235,640,277,720,298.7C800,320,880,320,960,277.3C1040,235,1120,149,1200,149.3C1280,149,1360,235,1400,277.3L1440,320L1440,320L1400,320C1360,320,1280,320,1200,320C1120,320,1040,320,960,320C880,320,800,320,720,320C640,320,560,320,480,320C400,320,320,320,240,320C160,320,80,320,40,320L0,320Z"></path></svg>